<svg version="1.2" baseProfile="tiny-ps" xmlns="http://www.w3.org/2000/svg" viewBox="0 0 704 564" width="704" height="564">
	<title>pyramid</title>
	<defs>
		<linearGradient id="grd1" gradientUnits="userSpaceOnUse"  x1="589.1" y1="25.6" x2="223.9" y2="657.3">
			<stop offset="0" stop-color="#2a3d8e"  />
			<stop offset="1" stop-color="#29b474"  />
		</linearGradient>
		<linearGradient id="grd2" gradientUnits="userSpaceOnUse"  x1="882.9" y1="193.5" x2="514.8" y2="830.3">
			<stop offset="0" stop-color="#2a3d8e"  />
			<stop offset="1" stop-color="#29b474"  />
		</linearGradient>
	</defs>
	<style>
		tspan { white-space:pre }
		.s0 { fill: url(#grd1) } 
		.s1 { fill: url(#grd2) } 
	</style>
	<g >
		<g >
			<g >
				<path class="s0" d="m471.47 218.18l-37.67 59.69l-159.3 252.44c-5.83 9.24-16 14.85-26.93 14.85h-4.11h-83.67h-64h-47.59c-25.07 0-40.3-27.63-26.93-48.83l275.19-436.09l15-23.77c17.48-27.69 57.86-27.69 75.34 0v0c9.16 14.52 9.16 33.02 0 47.54l-37.67 59.69l-172.03 272.62c-11.37 18.02 1.58 41.5 22.89 41.5c9.29 0 17.93-4.76 22.89-12.62l158.26-250.8l15-23.77c17.48-27.69 57.86-27.69 75.33 0h0c9.16 14.52 9.16 33.02 0 47.54z" />
				<path class="s1" d="m509.71 545.16c-4.88 0-7.84-5.38-5.24-9.5l36.89-58.46c5.57-8.82 5.57-20.06 0-28.88v0c-10.62-16.83-35.16-16.83-45.77 0l-48.01 76.08c-8.16 12.93-22.38 20.77-37.67 20.77h0c-35.07 0-56.38-38.65-37.67-68.31l93.56-148.27l44.69-70.82c3.7-5.87 12.25-5.87 15.96 0l44.69 70.82v0l32 50.71v0l80.53 126.82c10.75 16.93-1.41 39.05-21.46 39.05h-152.51z" />
			</g>
		</g>
	</g>
</svg>